<svg width="61" height="39" viewBox="0 0 61 39" fill="none" xmlns="http://www.w3.org/2000/svg">
<path d="M0 3C0 1.34315 1.34315 0 3 0H57.9375C59.5944 0 60.9375 1.34315 60.9375 3V36C60.9375 37.6569 59.5944 39 57.9375 39H3C1.34314 39 0 37.6569 0 36V3Z" fill="#0F3560"/>
<path d="M35.5657 29.1199H24.8632V9.88566H35.5657V29.1199Z" fill="#FF5F00"/>
<path d="M25.5488 19.5013C25.5488 15.5995 27.3756 12.124 30.2205 9.88416C28.1401 8.2463 25.5146 7.26872 22.6612 7.26872C15.906 7.26872 10.4301 12.7454 10.4301 19.5013C10.4301 26.2573 15.906 31.7339 22.6612 31.7339C25.5146 31.7339 28.1401 30.7563 30.2205 29.1185C27.3756 26.8787 25.5488 23.4031 25.5488 19.5013Z" fill="#EB001B"/>
<path d="M50.0002 19.5013C50.0002 26.2573 44.5244 31.7339 37.7692 31.7339C34.9158 31.7339 32.2902 30.7563 30.2091 29.1185C33.0547 26.8787 34.8816 23.4031 34.8816 19.5013C34.8816 15.5995 33.0547 12.124 30.2091 9.88416C32.2902 8.2463 34.9158 7.26872 37.7692 7.26872C44.5244 7.26872 50.0002 12.7454 50.0002 19.5013Z" fill="#F79E1B"/>
<path d="M19.6338 19.5786C19.6338 19.0443 19.984 18.6054 20.5561 18.6054C21.1028 18.6054 21.4719 19.0254 21.4719 19.5786C21.4719 20.1319 21.1028 20.5519 20.5561 20.5519C19.984 20.5519 19.6338 20.113 19.6338 19.5786ZM22.095 18.0587H21.4341V18.4278C21.2244 18.154 20.9063 17.9822 20.4739 17.9822C19.6215 17.9822 18.9532 18.6505 18.9532 19.5786C18.9532 20.5075 19.6215 21.175 20.4739 21.175C20.9063 21.175 21.2244 21.0032 21.4341 20.7295V21.0986H22.095V18.0587ZM44.4315 19.5786C44.4315 19.0443 44.7816 18.6054 45.3538 18.6054C45.9012 18.6054 46.2696 19.0254 46.2696 19.5786C46.2696 20.1319 45.9012 20.5519 45.3538 20.5519C44.7816 20.5519 44.4315 20.113 44.4315 19.5786ZM46.8934 16.8379H46.2317V18.4278C46.022 18.154 45.7039 17.9822 45.2715 17.9822C44.4191 17.9822 43.7508 18.6505 43.7508 19.5786C43.7508 20.5075 44.4191 21.175 45.2715 21.175C45.7039 21.175 46.022 21.0032 46.2317 20.7295V21.0986H46.8934V16.8379ZM30.2998 18.5741C30.7256 18.5741 30.9993 18.8412 31.0692 19.3115H29.4917C29.5624 18.8725 29.8288 18.5741 30.2998 18.5741ZM30.3129 17.9822C29.4219 17.9822 28.7987 18.6309 28.7987 19.5786C28.7987 20.5454 29.4473 21.175 30.3573 21.175C30.8152 21.175 31.2345 21.0608 31.6035 20.7492L31.2796 20.2593C31.0248 20.4624 30.7001 20.5774 30.3951 20.5774C29.9693 20.5774 29.5813 20.3801 29.4859 19.8327H31.7433C31.7498 19.7504 31.7564 19.6675 31.7564 19.5786C31.7498 18.6309 31.1646 17.9822 30.3129 17.9822ZM38.2941 19.5786C38.2941 19.0443 38.6443 18.6054 39.2164 18.6054C39.7631 18.6054 40.1322 19.0254 40.1322 19.5786C40.1322 20.1319 39.7631 20.5519 39.2164 20.5519C38.6443 20.5519 38.2941 20.113 38.2941 19.5786ZM40.7553 18.0587H40.0943V18.4278C39.884 18.154 39.5666 17.9822 39.1342 17.9822C38.2817 17.9822 37.6135 18.6505 37.6135 19.5786C37.6135 20.5075 38.2817 21.175 39.1342 21.175C39.5666 21.175 39.884 21.0032 40.0943 20.7295V21.0986H40.7553V18.0587ZM34.5612 19.5786C34.5612 20.501 35.2032 21.175 36.1831 21.175C36.6409 21.175 36.946 21.0731 37.2764 20.8125L36.9591 20.2782C36.7108 20.4566 36.4502 20.5519 36.1634 20.5519C35.6356 20.5454 35.2476 20.1639 35.2476 19.5786C35.2476 18.9934 35.6356 18.6119 36.1634 18.6054C36.4502 18.6054 36.7108 18.7007 36.9591 18.8791L37.2764 18.3448C36.946 18.0842 36.6409 17.9822 36.1831 17.9822C35.2032 17.9822 34.5612 18.6563 34.5612 19.5786ZM43.0833 17.9822C42.7019 17.9822 42.4536 18.1606 42.2818 18.4278V18.0587H41.6267V21.0986H42.2884V19.3945C42.2884 18.8915 42.5046 18.6119 42.937 18.6119C43.0709 18.6119 43.2107 18.6309 43.3505 18.6884L43.5543 18.0652C43.408 18.0077 43.2173 17.9822 43.0833 17.9822ZM25.3643 18.3004C25.0461 18.0907 24.6079 17.9822 24.1246 17.9822C23.3544 17.9822 22.8587 18.3513 22.8587 18.9555C22.8587 19.4513 23.2277 19.757 23.9076 19.8524L24.2199 19.8968C24.5824 19.9477 24.7535 20.0431 24.7535 20.2149C24.7535 20.45 24.5118 20.5839 24.0605 20.5839C23.6026 20.5839 23.2721 20.4376 23.0494 20.2658L22.7378 20.7805C23.1003 21.0476 23.5582 21.175 24.0539 21.175C24.9319 21.175 25.4407 20.7616 25.4407 20.1828C25.4407 19.6485 25.0403 19.369 24.3786 19.2736L24.0671 19.2285C23.781 19.1906 23.5517 19.1339 23.5517 18.93C23.5517 18.7073 23.7679 18.5741 24.1304 18.5741C24.5184 18.5741 24.894 18.7204 25.0782 18.8347L25.3643 18.3004ZM33.8929 17.9822C33.5115 17.9822 33.2633 18.1606 33.0922 18.4278V18.0587H32.437V21.0986H33.098V19.3945C33.098 18.8915 33.3142 18.6119 33.7466 18.6119C33.8806 18.6119 34.0203 18.6309 34.1601 18.6884L34.3639 18.0652C34.2176 18.0077 34.0269 17.9822 33.8929 17.9822ZM28.252 18.0587H27.171V17.1364H26.5028V18.0587H25.8862V18.6629H26.5028V20.0496C26.5028 20.755 26.7765 21.175 27.5583 21.175C27.8451 21.175 28.1756 21.0862 28.3853 20.9399L28.1945 20.3736C27.9973 20.4879 27.7811 20.5454 27.6093 20.5454C27.2788 20.5454 27.171 20.3415 27.171 20.0365V18.6629H28.252V18.0587ZM18.3687 21.0986V19.1906C18.3687 18.4722 17.9108 17.9888 17.1726 17.9822C16.7846 17.9757 16.3843 18.0965 16.104 18.5231C15.8944 18.1861 15.5639 17.9822 15.0994 17.9822C14.7748 17.9822 14.4574 18.0776 14.2091 18.4336V18.0587H13.5474V21.0986H14.215V19.4134C14.215 18.8856 14.5076 18.6054 14.9597 18.6054C15.3986 18.6054 15.6206 18.8915 15.6206 19.4068V21.0986H16.2889V19.4134C16.2889 18.8856 16.5939 18.6054 17.0329 18.6054C17.4842 18.6054 17.7004 18.8915 17.7004 19.4068V21.0986H18.3687Z" fill="white"/>
</svg>
