<svg width="61" height="39" viewBox="0 0 61 39" fill="none" xmlns="http://www.w3.org/2000/svg">
<path d="M0 3C0 1.34315 1.34315 0 3 0H57.9375C59.5944 0 60.9375 1.34315 60.9375 3V36C60.9375 37.6569 59.5944 39 57.9375 39H3C1.34314 39 0 37.6569 0 36V3Z" fill="#00579F"/>
<path d="M27.3813 26.6927H23.6296L25.9762 13.2432H29.7276L27.3813 26.6927Z" fill="white"/>
<path d="M40.9811 13.5726C40.2412 13.3005 39.0675 13 37.6162 13C33.9114 13 31.3024 14.8313 31.2864 17.4496C31.2557 19.3813 33.1543 20.4542 34.5744 21.0983C36.0259 21.7565 36.5193 22.1861 36.5193 22.7728C36.5045 23.6738 35.3464 24.0891 34.2663 24.0891C32.7685 24.0891 31.9659 23.875 30.7463 23.3737L30.2523 23.1588L29.7273 26.178C30.6072 26.5495 32.2283 26.8793 33.9114 26.8937C37.8478 26.8937 40.4106 25.0908 40.441 22.3006C40.456 20.7695 39.4534 19.5964 37.2919 18.6378C35.9797 18.0224 35.1761 17.6074 35.1761 16.9778C35.1915 16.4054 35.8558 15.8191 37.337 15.8191C38.5566 15.7903 39.4528 16.0621 40.1316 16.334L40.4709 16.4769L40.9811 13.5726Z" fill="white"/>
<path d="M45.9675 21.9282C46.2765 21.1556 47.4653 18.1652 47.4653 18.1652C47.4497 18.1939 47.7737 17.3782 47.9589 16.8775L48.2211 18.0364C48.2211 18.0364 48.9316 21.2558 49.0858 21.9282C48.4995 21.9282 46.7085 21.9282 45.9675 21.9282ZM50.5984 13.2434H47.6965C46.8017 13.2434 46.1218 13.4864 45.7357 14.3593L40.1631 26.6927H44.0996C44.0996 26.6927 44.7477 25.0327 44.887 24.6752C45.3188 24.6752 49.1482 24.6752 49.7038 24.6752C49.8115 25.1474 50.1514 26.6927 50.1514 26.6927H53.625L50.5984 13.2434Z" fill="white"/>
<path d="M20.496 13.2434L16.8219 22.4147L16.4205 20.5546C15.7412 18.4084 13.6109 16.0765 11.2336 14.9171L14.5989 26.6786H18.5662L24.4631 13.2434H20.496Z" fill="white"/>
<path d="M13.4103 13.2434H7.37425L7.3125 13.5151C12.021 14.6312 15.1393 17.321 16.4205 20.5546L15.1083 14.3739C14.8923 13.515 14.2284 13.2717 13.4103 13.2434Z" fill="#FAA61A"/>
</svg>
